<mxfile host="app.diagrams.net" modified="2023-10-11T13:44:50.357Z" agent="Mozilla/5.0 (Windows NT 10.0; Win64; x64) AppleWebKit/537.36 (KHTML, like Gecko) Chrome/117.0.0.0 Safari/537.36" etag="GBbtNPT1aExFS3TzlBV0" version="22.0.4" type="device">
  <diagram name="Page-1" id="QxwyhA2U7FJjgWf0Lxt8">
    <mxGraphModel dx="1173" dy="637" grid="1" gridSize="10" guides="1" tooltips="1" connect="1" arrows="1" fold="1" page="1" pageScale="1" pageWidth="850" pageHeight="1100" math="0" shadow="0">
      <root>
        <mxCell id="0" />
        <mxCell id="1" parent="0" />
        <mxCell id="L2MaO6o0iKYStYuGJU_O-1" value="" style="rounded=0;whiteSpace=wrap;html=1;strokeColor=#C1FFAB;" parent="1" vertex="1">
          <mxGeometry x="30" y="60" width="820" height="40" as="geometry" />
        </mxCell>
        <mxCell id="6H6XhJM6R_jEsVPOyMa3-1" value="logo" style="rounded=0;whiteSpace=wrap;html=1;" vertex="1" parent="1">
          <mxGeometry y="80" width="150" height="40" as="geometry" />
        </mxCell>
        <mxCell id="6H6XhJM6R_jEsVPOyMa3-2" value="profile" style="ellipse;whiteSpace=wrap;html=1;aspect=fixed;" vertex="1" parent="1">
          <mxGeometry x="250" y="161" width="190" height="190" as="geometry" />
        </mxCell>
      </root>
    </mxGraphModel>
  </diagram>
</mxfile>
